<?xml version="1.0" encoding="UTF-8"?>
<svg version="1.1" xmlns="http://www.w3.org/2000/svg" width="572" height="61">
<path d="M0 0 C6.53837472 4.72682503 10.73752337 11.69429757 12.59765625 19.51171875 C13.84842095 28.66961664 12.1675161 36.49568719 6.6875 43.96484375 C0.66482971 51.22829564 -6.3268011 55.07630863 -15.765625 56.3828125 C-24.56570511 56.75995879 -32.53470505 54.35827184 -39.375 48.75 C-46.03523782 42.36272275 -49.91960232 35.01881996 -50.3125 25.6875 C-50.05596582 16.81443533 -47.10890163 9.43950101 -41 3 C-29.46993167 -7.61761688 -13.17318157 -7.62148831 0 0 Z " fill="#FDFDFD" transform="translate(50,5)"/>
<path d="M0 0 C26.375 0 26.375 0 31.8125 4.5 C34.28984068 7.62927244 34.32865648 11.12363791 34.29296875 14.9921875 C33.83132931 18.15595645 32.27508035 19.85874791 30 22 C29.34 22 28.68 22 28 22 C28 22.66 28 23.32 28 24 C28.8971875 24.309375 28.8971875 24.309375 29.8125 24.625 C33.01059414 26.6352306 33.76993057 28.4392727 35 32 C35.29709954 36.82150106 34.72000322 40.03313853 31.8125 43.9375 C22.17865309 51.00232107 12.28823667 48 0 48 C0 32.16 0 16.32 0 0 Z M9 9 C9 12.3 9 15.6 9 19 C10.7492214 19.08142927 12.49954542 19.13938541 14.25 19.1875 C15.22453125 19.22230469 16.1990625 19.25710937 17.203125 19.29296875 C20.41231982 18.95681007 21.72309523 18.25024312 24 16 C24.58350505 13.45709375 24.58350505 13.45709375 24 11 C20.47320901 8.64880601 18.97120515 8.78556548 14.8125 8.875 C13.72582031 8.89304687 12.63914062 8.91109375 11.51953125 8.9296875 C10.68808594 8.95289063 9.85664063 8.97609375 9 9 Z M9 28 C9 31.3 9 34.6 9 38 C11.10353495 38.0810206 13.20795952 38.13919907 15.3125 38.1875 C16.48425781 38.22230469 17.65601563 38.25710937 18.86328125 38.29296875 C21.95389028 38.25969046 21.95389028 38.25969046 23.9296875 36.68359375 C25.29984144 34.89158103 25.29984144 34.89158103 24.8125 31.875 C24.4103125 30.451875 24.4103125 30.451875 24 29 C21.11584117 27.55792059 18.58278472 27.90605113 15.375 27.9375 C13.59222656 27.95103516 13.59222656 27.95103516 11.7734375 27.96484375 C10.40058594 27.98224609 10.40058594 27.98224609 9 28 Z " fill="#FDFDFD" transform="translate(430,7)"/>
<path d="M0 0 C3.3 0 6.6 0 10 0 C10.33 0.66 10.66 1.32 11 2 C11.99 1.34 12.98 0.68 14 0 C20.25736162 -0.61547819 23.11271313 0.0901705 28 4 C28.66 3.34 29.32 2.68 30 2 C33.72638897 -0.48425931 36.69276455 -0.82604515 41 0 C44.75305612 1.80702702 46.54031521 2.89453506 48.15185547 6.77001953 C49.00682862 10.02600536 49.22991995 12.69776442 49.1953125 16.0546875 C49.18886719 17.16328125 49.18242188 18.271875 49.17578125 19.4140625 C49.15902344 20.55617188 49.14226563 21.69828125 49.125 22.875 C49.11597656 24.0403125 49.10695313 25.205625 49.09765625 26.40625 C49.07417432 29.27104577 49.04133141 32.13541535 49 35 C45.7 35 42.4 35 39 35 C38.505 22.625 38.505 22.625 38 10 C35.69 10.33 33.38 10.66 31 11 C30.04831317 13.85506049 29.8099054 15.90937282 29.68359375 18.88671875 C29.64169922 19.82451172 29.59980469 20.76230469 29.55664062 21.72851562 C29.51732422 22.70498047 29.47800781 23.68144531 29.4375 24.6875 C29.39431641 25.67556641 29.35113281 26.66363281 29.30664062 27.68164062 C29.20058458 30.12092972 29.09979026 32.56044654 29 35 C26.03 35 23.06 35 20 35 C19.98541748 34.34926514 19.97083496 33.69853027 19.95581055 33.02807617 C19.88135451 30.08061694 19.78468734 27.13429358 19.6875 24.1875 C19.66494141 23.16333984 19.64238281 22.13917969 19.61914062 21.08398438 C19.5659668 19.60961914 19.5659668 19.60961914 19.51171875 18.10546875 C19.48553467 17.19949951 19.45935059 16.29353027 19.43237305 15.36010742 C19.156902 12.97313484 19.156902 12.97313484 17.78051758 11.1809082 C15.66161734 9.53939926 15.66161734 9.53939926 11 10 C10.67 18.25 10.34 26.5 10 35 C6.7 35 3.4 35 0 35 C0 23.45 0 11.9 0 0 Z " fill="#FDFDFD" transform="translate(488,20)"/>
<path d="M0 0 C23 0 23 0 29 3 C32.37993745 6.65398644 33.86444177 9.23774296 34.25 14.25 C33.96264356 18.56034663 33.12771765 21.24103215 31 25 C26.1555138 29.09300717 22.65847934 29.53143784 16.625 29.25 C12.850625 29.12625 12.850625 29.12625 9 29 C9 35.27 9 41.54 9 48 C6.03 48 3.06 48 0 48 C0 32.16 0 16.32 0 0 Z M9 9 C9 12.63 9 16.26 9 20 C10.93681161 20.08107583 12.8745934 20.13922475 14.8125 20.1875 C15.89144531 20.22230469 16.97039062 20.25710937 18.08203125 20.29296875 C20.98194349 20.24101188 20.98194349 20.24101188 22.89453125 18.6796875 C24.2945076 16.90814056 24.2945076 16.90814056 23.875 13.9375 C23.25349587 10.70744585 23.25349587 10.70744585 20 9 C17.25481679 8.75812349 17.25481679 8.75812349 14.3125 8.875 C12.559375 8.91625 10.80625 8.9575 9 9 Z " fill="#FDFDFD" transform="translate(80,7)"/>
<path d="M0 0 C2.97 0 5.94 0 9 0 C9.33 8.58 9.66 17.16 10 26 C11.918125 22.7825 11.918125 22.7825 13.875 19.5 C17.82283641 13.35982456 17.82283641 13.35982456 21.82421875 12.13671875 C24.33170306 12.18321989 26.56645355 12.40558469 29 13 C27.08549985 18.23234749 24.13212877 22.43798636 21 27 C21.30292969 27.56509277 21.60585938 28.13018555 21.91796875 28.71240234 C23.28292254 31.26434096 24.64152861 33.81960517 26 36.375 C26.71542969 37.70917969 26.71542969 37.70917969 27.4453125 39.0703125 C27.89648438 39.92109375 28.34765625 40.771875 28.8125 41.6484375 C29.23144531 42.43395996 29.65039062 43.21948242 30.08203125 44.02880859 C31 46 31 46 31 48 C27.37 48 23.74 48 20 48 C18.02 44.04 16.04 40.08 14 36 C9.94275917 39.70804806 9.94275917 39.70804806 9.25 44.25 C9.1675 45.4875 9.085 46.725 9 48 C6.03 48 3.06 48 0 48 C0 32.16 0 16.32 0 0 Z " fill="#FDFDFD" transform="translate(305,7)"/>
<path d="M0 0 C9.57 0 19.14 0 29 0 C29.0825 3.691875 29.165 7.38375 29.25 11.1875 C29.28641602 12.3427417 29.32283203 13.4979834 29.36035156 14.68823242 C29.44241065 22.2568598 29.44241065 22.2568598 27.109375 26.17578125 C23.21336658 29.54510705 19.63398602 29.25051396 14.6875 29.3125 C13.92759766 29.34150391 13.16769531 29.37050781 12.38476562 29.40039062 C8.39722281 29.44542803 6.47229512 29.3002138 3.01953125 27.10546875 C-0.06131972 23.89351774 -0.12154331 22.1208833 -0.09765625 17.7734375 C-0.09515869 16.84450684 -0.09266113 15.91557617 -0.09008789 14.95849609 C-0.08098389 13.77594238 -0.07187988 12.59338867 -0.0625 11.375 C-0.041875 7.62125 -0.02125 3.8675 0 0 Z " fill="#7D7EAC" transform="translate(17,16)"/>
<path d="M0 0 C3.29991858 2.47493894 4.06896491 3.94893256 5.5 7.875 C5.86294351 12.3398759 5.78205775 16.77426643 5.6875 21.25 C5.66719727 23.06951172 5.66719727 23.06951172 5.64648438 24.92578125 C5.61124582 27.90931206 5.56197525 30.89192458 5.5 33.875 C1.16666667 33.875 -3.16666667 33.875 -7.5 33.875 C-8.29277344 33.92140625 -9.08554687 33.9678125 -9.90234375 34.015625 C-16.78528932 34.31257797 -16.78528932 34.31257797 -20.5625 32 C-23.78537401 28.46523496 -23.89288048 25.78325598 -23.85546875 21.13671875 C-23.28672178 17.51798801 -21.34834388 15.99469777 -18.5 13.875 C-15.21480525 12.77993508 -12.76336585 12.77539392 -9.3125 12.8125 C-7.68248047 12.82603516 -7.68248047 12.82603516 -6.01953125 12.83984375 C-5.18808594 12.85144531 -4.35664063 12.86304688 -3.5 12.875 C-4.16 11.555 -4.82 10.235 -5.5 8.875 C-7.3871875 8.8440625 -7.3871875 8.8440625 -9.3125 8.8125 C-10.02019531 8.80089844 -10.72789062 8.78929687 -11.45703125 8.77734375 C-13.70305461 8.79236783 -13.70305461 8.79236783 -16.5 9.875 C-18.15 8.225 -19.8 6.575 -21.5 4.875 C-20.49735529 2.14051443 -19.91172606 1.07942845 -17.2578125 -0.23828125 C-11.56047394 -2.07014507 -5.66006231 -1.81930574 0 0 Z M-13.5 20.875 C-13.83 22.195 -14.16 23.515 -14.5 24.875 C-12.60114904 26.77385096 -9.92752097 25.99867506 -7.41015625 26.0078125 C-5.41365633 25.99186861 -5.41365633 25.99186861 -3.5 24.875 C-3.5 23.555 -3.5 22.235 -3.5 20.875 C-6.8 20.875 -10.1 20.875 -13.5 20.875 Z " fill="#FDFDFD" transform="translate(361.5,21.125)"/>
<path d="M0 0 C3.29991858 2.47493894 4.06896491 3.94893256 5.5 7.875 C5.86294351 12.3398759 5.78205775 16.77426643 5.6875 21.25 C5.66719727 23.06951172 5.66719727 23.06951172 5.64648438 24.92578125 C5.61124582 27.90931206 5.56197525 30.89192458 5.5 33.875 C1.16666667 33.875 -3.16666667 33.875 -7.5 33.875 C-8.29277344 33.92140625 -9.08554687 33.9678125 -9.90234375 34.015625 C-16.78528932 34.31257797 -16.78528932 34.31257797 -20.5625 32 C-23.78537401 28.46523496 -23.89288048 25.78325598 -23.85546875 21.13671875 C-23.28672178 17.51798801 -21.34834388 15.99469777 -18.5 13.875 C-15.21480525 12.77993508 -12.76336585 12.77539392 -9.3125 12.8125 C-7.68248047 12.82603516 -7.68248047 12.82603516 -6.01953125 12.83984375 C-5.18808594 12.85144531 -4.35664063 12.86304688 -3.5 12.875 C-4.16 11.555 -4.82 10.235 -5.5 8.875 C-7.3871875 8.8440625 -7.3871875 8.8440625 -9.3125 8.8125 C-10.02019531 8.80089844 -10.72789062 8.78929687 -11.45703125 8.77734375 C-13.70305461 8.79236783 -13.70305461 8.79236783 -16.5 9.875 C-18.15 8.225 -19.8 6.575 -21.5 4.875 C-20.49735529 2.14051443 -19.91172606 1.07942845 -17.2578125 -0.23828125 C-11.56047394 -2.07014507 -5.66006231 -1.81930574 0 0 Z M-13.5 20.875 C-13.83 22.195 -14.16 23.515 -14.5 24.875 C-12.60114904 26.77385096 -9.92752097 25.99867506 -7.41015625 26.0078125 C-5.41365633 25.99186861 -5.41365633 25.99186861 -3.5 24.875 C-3.5 23.555 -3.5 22.235 -3.5 20.875 C-6.8 20.875 -10.1 20.875 -13.5 20.875 Z " fill="#FDFDFD" transform="translate(291.5,21.125)"/>
<path d="M0 0 C2.8721279 2.08229273 3.94659625 3.63469089 5.5 6.8125 C5.84057617 9.85864258 5.84057617 9.85864258 5.79296875 13.20703125 C5.78330078 14.40908203 5.77363281 15.61113281 5.76367188 16.84960938 C5.73853516 18.09548828 5.71339844 19.34136719 5.6875 20.625 C5.66719727 22.52282227 5.66719727 22.52282227 5.64648438 24.45898438 C5.61118318 27.57725643 5.56186819 30.69466042 5.5 33.8125 C1.16666667 33.8125 -3.16666667 33.8125 -7.5 33.8125 C-8.29277344 33.85890625 -9.08554687 33.9053125 -9.90234375 33.953125 C-13.98971453 34.12946765 -16.81430095 34.13435874 -20.5625 32.375 C-23.35085617 28.68717409 -23.76915035 25.3801398 -23.5 20.8125 C-22.32481927 17.22167 -21.66561895 15.41681914 -18.27734375 13.66015625 C-15.10604426 12.69226316 -12.49637687 12.61477743 -9.1875 12.6875 C-8.11886719 12.70554687 -7.05023437 12.72359375 -5.94921875 12.7421875 C-5.14097656 12.76539063 -4.33273437 12.78859375 -3.5 12.8125 C-4.16 11.4925 -4.82 10.1725 -5.5 8.8125 C-10.15349566 8.60694142 -10.15349566 8.60694142 -14.625 9.625 C-15.24375 9.686875 -15.8625 9.74875 -16.5 9.8125 C-19.25 7.375 -19.25 7.375 -21.5 4.8125 C-20.5 1.8125 -20.5 1.8125 -18.125 0.125 C-12.03343833 -2.08056543 -6.13400341 -2.08117973 0 0 Z M-13.5 20.8125 C-13.83 22.1325 -14.16 23.4525 -14.5 24.8125 C-12.60114904 26.71135096 -9.92752097 25.93617506 -7.41015625 25.9453125 C-5.41365633 25.92936861 -5.41365633 25.92936861 -3.5 24.8125 C-3.5 23.4925 -3.5 22.1725 -3.5 20.8125 C-6.8 20.8125 -10.1 20.8125 -13.5 20.8125 Z " fill="#FDFDFD" transform="translate(566.5,21.1875)"/>
<path d="M0 0 C6.29558452 5.834932 6.10853512 12.20363221 6.5625 20.375 C-3.3375 20.87 -3.3375 20.87 -13.4375 21.375 C-9.85837889 24.75007039 -9.85837889 24.75007039 -6.375 24.125 C-3.40619464 23.40440395 -3.40619464 23.40440395 -0.4375 22.375 C1.8261564 23.77945835 3.5833685 25.5717913 5.5625 27.375 C0.10079806 33.13192907 0.10079806 33.13192907 -4.92578125 33.61328125 C-10.9758648 33.77227376 -14.73316934 33.60889759 -19.4375 29.375 C-23.78028251 24.43321301 -23.71746652 19.7265351 -23.65625 13.390625 C-23.28434547 8.26365536 -21.78095071 4.97034772 -18.4375 1 C-13.28439325 -3.18689924 -5.7157221 -2.70197772 0 0 Z M-13.3125 9.25 C-14.59346257 11.2688588 -14.59346257 11.2688588 -14.4375 13.375 C-10.4775 13.375 -6.5175 13.375 -2.4375 13.375 C-3.89038986 8.7908037 -3.89038986 8.7908037 -5.4375 7.375 C-9.85008093 6.81842211 -9.85008093 6.81842211 -13.3125 9.25 Z " fill="#FDFDFD" transform="translate(139.4375,21.625)"/>
<path d="M0 0 C3.55790892 3.04963621 5.71168761 6.44756283 7.1875 10.875 C7.1875 14.175 7.1875 17.475 7.1875 20.875 C0.5875 20.875 -6.0125 20.875 -12.8125 20.875 C-11.12369584 24.10238328 -11.12369584 24.10238328 -8.0625 24.6875 C-4.47123199 24.89468854 -2.12272199 24.21485176 1.1875 22.875 C2.89634005 24.49839805 4.56196717 26.16819053 6.1875 27.875 C6.1875 28.535 6.1875 29.195 6.1875 29.875 C0.04313511 33.51610512 -4.66863407 34.84589453 -11.8125 33.875 C-17.08597563 32.11717479 -19.17248855 29.7021339 -21.8125 24.875 C-22.36517834 22.02031455 -22.37366073 19.27503807 -22.3125 16.375 C-22.32796875 15.64152344 -22.3434375 14.90804687 -22.359375 14.15234375 C-22.32226915 8.96680059 -21.20689661 5.98302661 -17.8125 1.875 C-12.34525748 -1.93935525 -6.14775851 -2.4591034 0 0 Z M-11.625 9.1875 C-13.1002467 10.93999542 -13.1002467 10.93999542 -12.8125 13.875 C-9.1825 13.875 -5.5525 13.875 -1.8125 13.875 C-2.44091973 9.9035831 -2.44091973 9.9035831 -4.8125 7.875 C-7.73341393 7.50052385 -9.20840072 7.4375488 -11.625 9.1875 Z " fill="#FDFDFD" transform="translate(233.8125,21.125)"/>
<path d="M0 0 C2.97 0 5.94 0 9 0 C9.33 0.66 9.66 1.32 10 2 C10.99 1.34 11.98 0.68 13 0 C17.08893916 -0.32975316 19.9374272 -0.35419093 23.8125 0.9375 C27.71647541 4.6183911 28.80450865 9.63553314 29.23901367 14.89086914 C29.29374442 17.95356198 29.26284692 21.00032397 29.1875 24.0625 C29.16719727 25.64708008 29.16719727 25.64708008 29.14648438 27.26367188 C29.11147532 29.84267254 29.05768187 32.42140681 29 35 C25.7 35 22.4 35 19 35 C18.505 22.625 18.505 22.625 18 10 C16.02 10 14.04 10 12 10 C9.43863779 12.56136221 9.70333143 13.66561331 9.5859375 17.2265625 C9.52792969 18.7734375 9.52792969 18.7734375 9.46875 20.3515625 C9.4378125 21.43179688 9.406875 22.51203125 9.375 23.625 C9.31699219 25.25695313 9.31699219 25.25695313 9.2578125 26.921875 C9.16333753 29.61441165 9.07777569 32.30693757 9 35 C6.03 35 3.06 35 0 35 C0 23.45 0 11.9 0 0 Z " fill="#FDFDFD" transform="translate(375,20)"/>
<path d="M0 0 C1.921875 1.09765625 1.921875 1.09765625 4.734375 3.09765625 C4.734375 6.09765625 4.734375 6.09765625 3.359375 8.34765625 C-0.27803097 10.77259356 -2.74434238 10.00368835 -6.92578125 9.26171875 C-9.53980385 8.83877472 -9.53980385 8.83877472 -12.265625 11.09765625 C-12.74437297 13.69063887 -12.74437297 13.69063887 -12.640625 16.59765625 C-12.64835938 17.57734375 -12.65609375 18.55703125 -12.6640625 19.56640625 C-12.53257812 20.40171875 -12.40109375 21.23703125 -12.265625 22.09765625 C-8.38549424 24.68441009 -6.73612746 23.89596026 -2.265625 23.09765625 C0.734375 23.09765625 0.734375 23.09765625 2.984375 24.84765625 C4.734375 27.09765625 4.734375 27.09765625 4.859375 29.16015625 C3.02232753 32.32396023 1.18679223 32.90716755 -2.265625 34.09765625 C-7.48846755 34.74952983 -12.48363647 34.89918546 -17.265625 32.47265625 C-21.56019252 29.0727903 -23.04848257 25.91108895 -23.69921875 20.4765625 C-23.71275979 7.24697021 -23.71275979 7.24697021 -19.265625 2.09765625 C-13.94151725 -1.92788863 -6.18718501 -2.46420644 0 0 Z " fill="#FDFDFD" transform="translate(202.265625,20.90234375)"/>
<path d="M0 0 C3.3 0 6.6 0 10 0 C10 2.97 10 5.94 10 9 C11.32 9 12.64 9 14 9 C14 11.97 14 14.94 14 18 C12.68 18 11.36 18 10 18 C10.33 23.28 10.66 28.56 11 34 C11.99 34.33 12.98 34.66 14 35 C14 37.97 14 40.94 14 44 C5.36497244 44.4390692 5.36497244 44.4390692 1 41 C-0.2263757 38.54724859 -0.11415314 36.9494219 -0.09765625 34.2109375 C-0.09282227 32.79941406 -0.09282227 32.79941406 -0.08789062 31.359375 C-0.07951172 30.37453125 -0.07113281 29.3896875 -0.0625 28.375 C-0.05798828 27.38242187 -0.05347656 26.38984375 -0.04882812 25.3671875 C-0.03702145 22.9113984 -0.020554 20.45572896 0 18 C-0.99 18 -1.98 18 -3 18 C-3 15.03 -3 12.06 -3 9 C-2.01 9 -1.02 9 0 9 C0 6.03 0 3.06 0 0 Z " fill="#FDFDFD" transform="translate(249,11)"/>
<path d="M0 0 C3.63 0 7.26 0 11 0 C11.33 0.66 11.66 1.32 12 2 C12.99 1.34 13.98 0.68 15 0 C21.32258065 -0.4516129 21.32258065 -0.4516129 25 2 C23.87548273 4.9719385 22.77706209 7.33440687 21 10 C18.03 10 15.06 10 12 10 C11.67 18.25 11.34 26.5 11 35 C7.37 35 3.74 35 0 35 C0 23.45 0 11.9 0 0 Z " fill="#FDFDFD" transform="translate(152,20)"/>
<path d="M0 0 C3.3 0 6.6 0 10 0 C10 11.55 10 23.1 10 35 C6.7 35 3.4 35 0 35 C0 23.45 0 11.9 0 0 Z " fill="#FDFDFD" transform="translate(471,20)"/>
<path d="M0 0 C4.62 0 9.24 0 14 0 C14 4.62 14 9.24 14 14 C4.81839439 14.604053 4.81839439 14.604053 1.375 12.0625 C-0.53468815 7.80910366 -0.27703655 4.64036217 0 0 Z " fill="#EB3950" transform="translate(17,30)"/>
<path d="M0 0 C4.62 0 9.24 0 14 0 C14 4.29 14 8.58 14 13 C9.38 13 4.76 13 0 13 C0 8.71 0 4.42 0 0 Z " fill="#008CCE" transform="translate(17,17)"/>
<path d="M0 0 C4.29 0 8.58 0 13 0 C13.36774194 9.43870968 13.36774194 9.43870968 11.8125 11.8125 C9.36922469 13.41326658 7.70739128 13.30028797 4.8125 13.1875 C3.224375 13.125625 1.63625 13.06375 0 13 C0 8.71 0 4.42 0 0 Z " fill="#01AD4D" transform="translate(32,31)"/>
<path d="M0 0 C3.3 0 6.6 0 10 0 C10 3.3 10 6.6 10 10 C6.7 10 3.4 10 0 10 C0 6.7 0 3.4 0 0 Z " fill="#FDFDFD" transform="translate(471,7)"/>
</svg>
